# xmcd
#
# Track frame offsets:
# 150
# 14131
# 28197
# 42378
# 58252
# 72937
# 87009
# 99946
# 113746
# 130101
# 145101
# 158357
# 174462
# 190390
#
# Disc length: 2722 seconds
#
#
# Revision: 1
# Processed by: cddbd v1.5.2PL0 Copyright (c) Steve Scherf et al.
# Submitted via: FreeRIP 2.945 
#
DISCID=ba0aa00e
DTITLE=Amor Sertanejo V 2 - AMOR SERTANEJO VOL.2
DYEAR=2009
DGENRE=SERTANEJO
TTITLE0=DE TANTO TE QUERER
TTITLE1=FICAR POR FICAR
TTITLE2=FORA DO EIXO
TTITLE3=VOU DOAR MEU CORACAO
TTITLE4=FOI DEUS
TTITLE5=NAO E CHUVA DE VERAO
TTITLE6=ESPERANDO NA JANELA
TTITLE7=FOQUEIRA
TTITLE8=QUANDO VOCE VEM ME ABRACAR
TTITLE9=AH! COMO EU AMO VOCE
TTITLE10=BOLA DE PAPEL
TTITLE11=IMPREVISIVEL
TTITLE12=POR TODA A VIDA
TTITLE13=MORRO DE SAUDADE
EXTD=RIPPER BY 10-40 SONARSOM/ES COLATINA
EXTT0=Jorge e Mateus
EXTT1=Bruno e Marrone
EXTT2=Hugo Pena e Gabriel
EXTT3=Joao Bosco e Vinicius
EXTT4=Edson e Hudson
EXTT5=Joao Neto e Federico
EXTT6=Cesar Menotti e Fabiano
EXTT7=Jorge e Mateus
EXTT8=Guilherme e Santiago
EXTT9=Fernando e Sorocaba
EXTT10=Tche Garotos
EXTT11=Edson e Hudson - Bruno e Marrone
EXTT12=Banda Nechivile
EXTT13=Ze Henrique e Gabriel
PLAYORDER=
